<?xml version="1.0" standalone="no"?>
<!DOCTYPE svg PUBLIC "-//W3C//DTD SVG 20010904//EN"
 "http://www.w3.org/TR/2001/REC-SVG-20010904/DTD/svg10.dtd">
<svg version="1.0" xmlns="http://www.w3.org/2000/svg"
 width="700.000000pt" height="700.000000pt" viewBox="0 0 700.000000 700.000000"
 preserveAspectRatio="xMidYMid meet">
<metadata>
Created by potrace 1.11, written by Peter Selinger 2001-2013
</metadata>
<g transform="translate(0.000000,700.000000) scale(0.100000,-0.100000)"
fill="#000000" stroke="none">
<path d="M2240 6408 c-225 -34 -415 -210 -477 -443 -4 -16 -9 -856 -10 -1865
-3 -1830 -3 -1835 18 -1910 30 -110 74 -186 154 -265 79 -80 155 -124 265
-154 75 -21 79 -21 1915 -19 l1840 3 66 22 c64 22 160 78 213 124 41 35 101
117 132 178 61 122 57 -13 59 1986 2 1956 4 1878 -47 1998 -26 64 -87 148
-147 205 -43 40 -182 118 -226 126 -11 3 -38 9 -60 14 -51 11 -3618 11 -3695
0z m3012 -1309 c155 -77 211 -266 122 -410 -24 -39 -101 -118 -985 -1007 -661
-664 -636 -644 -764 -638 -48 2 -84 10 -115 26 -30 15 -153 131 -380 359 -376
377 -382 386 -383 506 -2 213 211 351 404 263 44 -20 98 -68 269 -240 l214
-216 275 278 c1080 1091 1067 1079 1156 1101 49 12 142 1 187 -22z"/>
<path d="M791 5239 c-74 -22 -141 -83 -179 -158 l-27 -56 -1 -1956 c0 -1536 2
-1970 12 -2018 14 -69 51 -156 92 -216 64 -94 194 -188 312 -227 l65 -21 1968
-2 c1828 -2 1971 -1 2018 15 66 23 117 65 156 129 95 157 17 363 -159 421 -50
17 -158 18 -1845 18 -1405 0 -1800 3 -1830 12 -87 29 -164 106 -193 195 -11
32 -13 392 -14 1845 l-1 1805 -28 57 c-49 100 -138 159 -247 164 -36 2 -80 -1
-99 -7z"/>
</g>
</svg>
